<?xml version="1.0" ?><svg style="enable-background:new 0 0 1000 1000;" version="1.1" viewBox="0 0 1000 1000" xml:space="preserve" xmlns="http://www.w3.org/2000/svg" xmlns:xlink="http://www.w3.org/1999/xlink"><style type="text/css">
	.st0{display:none;}
	.st1{display:inline;fill:#35495E;}
	.st2{fill:#191919;}
	.st3{fill:#EDEDED;}
	.st4{fill:url(#XMLID_28_);}
	.st5{fill:url(#XMLID_29_);}
	.st6{fill:url(#XMLID_30_);}
	.st7{fill:url(#XMLID_31_);}
	.st8{fill:url(#XMLID_32_);}
	.st9{fill:url(#XMLID_33_);}
	.st10{fill:url(#XMLID_34_);}
	.st11{fill:url(#XMLID_35_);}
	.st12{fill:url(#XMLID_36_);}
	.st13{fill:url(#XMLID_37_);}
	.st14{fill:url(#XMLID_38_);}
	.st15{opacity:0.2;fill:#FFFFFF;}
</style><g class="st0" id="Layer_1"><rect class="st1" height="997.7" id="XMLID_1_" width="1000" y="2.3"/></g><g id="Layer_2"><g id="XMLID_2_"><rect class="st2" height="750" id="XMLID_3_" width="750" x="125" y="125"/><rect class="st3" height="93.8" id="XMLID_4_" width="93.8" x="171.9" y="171.9"/><rect class="st3" height="656.3" id="XMLID_13_" width="375" x="312.5" y="171.9"/><rect class="st3" height="93.8" id="XMLID_5_" width="93.8" x="171.9" y="453.1"/><rect class="st3" height="93.8" id="XMLID_6_" width="93.8" x="171.9" y="593.8"/><rect class="st3" height="93.8" id="XMLID_7_" width="93.8" x="171.9" y="734.4"/><rect class="st3" height="93.8" id="XMLID_8_" width="93.8" x="734.4" y="734.4"/><rect class="st3" height="93.8" id="XMLID_9_" width="93.8" x="734.4" y="593.8"/><rect class="st3" height="93.8" id="XMLID_10_" width="93.8" x="734.4" y="453.1"/><rect class="st3" height="93.8" id="XMLID_11_" width="93.8" x="734.4" y="312.5"/><rect class="st3" height="93.8" id="XMLID_12_" width="93.8" x="734.4" y="171.9"/><rect class="st3" height="93.8" id="XMLID_14_" width="93.8" x="171.9" y="312.5"/><linearGradient gradientUnits="userSpaceOnUse" id="XMLID_28_" x1="218.75" x2="218.75" y1="265.625" y2="312.5"><stop offset="0" style="stop-color:#FFFFFF;stop-opacity:0.1"/><stop offset="1" style="stop-color:#000000;stop-opacity:0"/></linearGradient><rect class="st4" height="46.9" id="XMLID_15_" width="93.8" x="171.9" y="265.6"/><linearGradient gradientUnits="userSpaceOnUse" id="XMLID_29_" x1="781.25" x2="781.25" y1="265.625" y2="312.5"><stop offset="0" style="stop-color:#FFFFFF;stop-opacity:0.1"/><stop offset="1" style="stop-color:#000000;stop-opacity:0"/></linearGradient><rect class="st5" height="46.9" id="XMLID_18_" width="93.8" x="734.4" y="265.6"/><linearGradient gradientUnits="userSpaceOnUse" id="XMLID_30_" x1="781.25" x2="781.25" y1="406.25" y2="453.125"><stop offset="0" style="stop-color:#FFFFFF;stop-opacity:0.1"/><stop offset="1" style="stop-color:#000000;stop-opacity:0"/></linearGradient><rect class="st6" height="46.9" id="XMLID_19_" width="93.8" x="734.4" y="406.3"/><linearGradient gradientUnits="userSpaceOnUse" id="XMLID_31_" x1="781.25" x2="781.25" y1="546.875" y2="593.75"><stop offset="0" style="stop-color:#FFFFFF;stop-opacity:0.1"/><stop offset="1" style="stop-color:#000000;stop-opacity:0"/></linearGradient><rect class="st7" height="46.9" id="XMLID_20_" width="93.8" x="734.4" y="546.9"/><linearGradient gradientUnits="userSpaceOnUse" id="XMLID_32_" x1="781.25" x2="781.25" y1="687.5" y2="734.375"><stop offset="0" style="stop-color:#FFFFFF;stop-opacity:0.1"/><stop offset="1" style="stop-color:#000000;stop-opacity:0"/></linearGradient><rect class="st8" height="46.9" id="XMLID_21_" width="93.8" x="734.4" y="687.5"/><linearGradient gradientUnits="userSpaceOnUse" id="XMLID_33_" x1="781.25" x2="781.25" y1="828.125" y2="875"><stop offset="0" style="stop-color:#FFFFFF;stop-opacity:0.1"/><stop offset="1" style="stop-color:#000000;stop-opacity:0"/></linearGradient><rect class="st9" height="46.9" id="XMLID_22_" width="93.8" x="734.4" y="828.1"/><linearGradient gradientUnits="userSpaceOnUse" id="XMLID_34_" x1="218.75" x2="218.75" y1="406.25" y2="453.125"><stop offset="0" style="stop-color:#FFFFFF;stop-opacity:0.1"/><stop offset="1" style="stop-color:#000000;stop-opacity:0"/></linearGradient><rect class="st10" height="46.9" id="XMLID_16_" width="93.8" x="171.9" y="406.3"/><linearGradient gradientUnits="userSpaceOnUse" id="XMLID_35_" x1="218.75" x2="218.75" y1="546.875" y2="593.75"><stop offset="0" style="stop-color:#FFFFFF;stop-opacity:0.1"/><stop offset="1" style="stop-color:#000000;stop-opacity:0"/></linearGradient><rect class="st11" height="46.9" id="XMLID_17_" width="93.8" x="171.9" y="546.9"/><linearGradient gradientUnits="userSpaceOnUse" id="XMLID_36_" x1="218.75" x2="218.75" y1="687.5" y2="734.375"><stop offset="0" style="stop-color:#FFFFFF;stop-opacity:0.1"/><stop offset="1" style="stop-color:#000000;stop-opacity:0"/></linearGradient><rect class="st12" height="46.9" id="XMLID_23_" width="93.8" x="171.9" y="687.5"/><linearGradient gradientUnits="userSpaceOnUse" id="XMLID_37_" x1="218.75" x2="218.75" y1="828.125" y2="875"><stop offset="0" style="stop-color:#FFFFFF;stop-opacity:0.1"/><stop offset="1" style="stop-color:#000000;stop-opacity:0"/></linearGradient><rect class="st13" height="46.9" id="XMLID_24_" width="93.8" x="171.9" y="828.1"/><linearGradient gradientUnits="userSpaceOnUse" id="XMLID_38_" x1="500" x2="500" y1="828.125" y2="875"><stop offset="0" style="stop-color:#FFFFFF;stop-opacity:0.1"/><stop offset="1" style="stop-color:#000000;stop-opacity:0"/></linearGradient><rect class="st14" height="46.9" id="XMLID_25_" width="375" x="312.5" y="828.1"/><polygon class="st15" id="XMLID_26_" points="125,125 875,875 875,125   "/></g></g></svg>